<?xml version="1.0" encoding="UTF-8"?>
<svg id="Capa_2" data-name="Capa 2" xmlns="http://www.w3.org/2000/svg" viewBox="0 0 58.18 98.28">
  <defs>
    <style>
      .cls-1 {
        fill: #1d1d1b;
      }
    </style>
  </defs>
  <g id="Capa_1-2" data-name="Capa 1">
    <g>
      <g>
        <path class="cls-1" d="m16.49,38.02C6.41,38.02,0,31.83,0,19.01S6.41,0,16.49,0h7.99c10.15,0,16.49,6.19,16.49,19.01s-6.34,19.01-16.49,19.01h-7.99Zm7.27-7.34c6.62,0,9.5-3.46,9.5-11.67s-2.88-11.59-9.5-11.59h-6.55c-6.55,0-9.5,3.38-9.5,11.59s2.95,11.67,9.5,11.67h6.55Z"/>
        <path class="cls-1" d="m26.43,60.27c9.5,0,13.25,5.33,13.25,12.53v17.86c0,5.47-1.44,7.63-7.85,7.63H14.04c-9,0-12.75-4.39-12.75-11.59s3.46-10.95,12.82-10.95h18.07v-2.88c0-2.95-1.66-5.26-5.83-5.26H3.6s0-7.34,0-7.34h22.83Zm5.76,28.66v-7.13s-17.93,0-17.93,0c-4.03,0-5.47,1.66-5.47,4.46s1.51,4.61,5.33,4.61h15.99c1.51,0,2.09-.58,2.09-1.94Z"/>
        <rect class="cls-1" x="9" y="45.94" width="22.97" height="6.41"/>
      </g>
      <path class="cls-1" d="m58.18,88.49v9.79h-8.21v-9.79h8.21Z"/>
    </g>
  </g>
</svg>