<svg width="32" height="32" viewBox="0 0 32 32" fill="none" xmlns="http://www.w3.org/2000/svg">
<path d="M26.4986 0H5.50136C2.46784 0 0 2.46784 0 5.50136V26.4986C0 29.5322 2.46784 32 5.50136 32H26.4986C29.5322 32 32 29.5322 32 26.4986V5.50136C32 2.46784 29.5322 0 26.4986 0ZM8.30773 26.3847C6.82087 26.3847 5.61534 25.1793 5.61534 23.6925C5.61534 22.2056 6.82067 21.0001 8.30773 21.0001C9.7946 21.0001 10.9999 22.2054 10.9999 23.6925C10.9999 25.1793 9.7946 26.3847 8.30773 26.3847ZM8.30773 11.0001C6.82087 11.0001 5.61534 9.7948 5.61534 8.30793C5.61534 6.82106 6.82067 5.61554 8.30773 5.61554C9.7946 5.61554 10.9999 6.82087 10.9999 8.30793C10.9999 9.7946 9.7946 11.0001 8.30773 11.0001ZM16 18.6924C14.5131 18.6924 13.3078 17.4871 13.3078 16.0002C13.3078 14.5133 14.5131 13.3078 16 13.3078C17.4869 13.3078 18.6924 14.5131 18.6924 16.0002C18.6922 17.4869 17.4869 18.6924 16 18.6924ZM23.6923 26.3847C22.2054 26.3847 21.0001 25.1793 21.0001 23.6925C21.0001 22.2056 22.2054 21.0001 23.6923 21.0001C25.1791 21.0001 26.3847 22.2054 26.3847 23.6925C26.3847 25.1793 25.1791 26.3847 23.6923 26.3847ZM23.6923 11.0001C22.2054 11.0001 21.0001 9.7948 21.0001 8.30793C21.0001 6.82106 22.2054 5.61554 23.6923 5.61554C25.1791 5.61554 26.3847 6.82087 26.3847 8.30793C26.3847 9.7946 25.1791 11.0001 23.6923 11.0001Z" fill="black"/>
</svg>
