<svg width="32" height="32" viewBox="0 0 32 32" fill="none" xmlns="http://www.w3.org/2000/svg">
<path d="M17.9151 1.19987C16.574 2.30651 15.9239 3.93928 16.0166 5.55144C16.0166 5.55144 16.031 5.91194 16.085 6.14761C16.1101 6.29181 16.139 6.4323 16.1756 6.57444C16.5184 8.22616 16.7804 10.4378 16.1023 10.9973C16.0854 11.0113 16.0685 11.022 16.0516 11.0352C15.4406 11.5082 14.8795 11.3854 14.2289 11.6239C14.2277 11.6244 14.2268 11.6248 14.2256 11.6252C14.1782 11.6425 14.13 11.6631 14.0818 11.6845C14.0728 11.6886 14.0637 11.6919 14.0542 11.696C14.011 11.7162 13.9673 11.7397 13.9232 11.7636C13.9088 11.7714 13.8944 11.778 13.8799 11.7863C13.8371 11.811 13.7934 11.8398 13.7498 11.8687C13.7337 11.8794 13.718 11.888 13.7015 11.8992C13.6414 11.9408 13.5804 11.9869 13.5182 12.0384C12.5175 12.8645 13.128 13.3836 12.6542 13.7746C12.1804 14.166 11.6197 13.63 11.1286 14.035C10.6379 14.44 11.1331 15.3587 11.1331 15.3587L0 24.5464C0 24.5464 0.0605641 25.4071 0.842956 26.3551C1.62535 27.3031 2.45883 27.526 2.45883 27.526L3.32692 26.8095L4.38782 28.0954C4.5312 28.2692 4.63296 28.3685 4.80683 28.2247L5.01777 28.0509C5.19164 27.9075 5.55049 27.9063 5.69387 28.0801L5.86774 28.2911C6.01111 28.4649 5.96785 28.8485 5.79399 28.9919L5.0565 29.6004C4.88264 29.7438 4.83443 29.914 4.97822 30.0878L6.10835 31.4573C6.25172 31.6312 6.43589 31.6258 6.60934 31.4825L9.55969 29.0475C9.73396 28.9037 9.85921 28.6545 9.71584 28.481L6.30693 24.3503L7.22116 23.5959L10.4006 27.3999C10.5901 27.6269 10.9279 27.657 11.155 27.4675L12.2847 26.5232C12.5117 26.3337 12.5418 25.9958 12.3522 25.7688L9.18312 21.9771L13.5924 18.3388C13.5924 18.3388 14.5165 19.1405 15.0076 18.7355C15.4987 18.3305 15.1625 17.7805 15.6371 17.3891C16.1109 16.9977 16.5217 17.7158 17.5225 16.8902C18.5236 16.0641 18.1998 15.2557 19.0423 14.5603C19.0432 14.5595 19.0444 14.559 19.0452 14.5582C19.7263 14.0024 21.8489 14.6835 23.4034 15.3324C23.5356 15.3958 23.6708 15.4535 23.8067 15.5054C24.028 15.6026 24.3802 15.6863 24.3802 15.6863C25.9458 16.0835 27.673 15.7559 29.0136 14.6493C31.2487 12.8052 31.5651 9.49801 29.721 7.2629C29.5941 7.10922 29.4602 6.96543 29.3197 6.82988C29.8483 6.731 30.36 6.50111 30.8038 6.13442C32.2054 4.97793 32.404 2.90433 31.2475 1.50228C30.091 0.10065 28.017 -0.0979348 26.6153 1.05856C26.1716 1.42483 25.8482 1.8838 25.6508 2.38355C25.5446 2.2204 25.4288 2.06096 25.3019 1.90769C23.4569 -0.32742 20.1498 -0.64425 17.9151 1.19987ZM27.7364 4.39907C27.2713 3.83545 27.3512 3.00073 27.9148 2.53558C28.4788 2.07002 29.3135 2.14995 29.7783 2.71398C30.2434 3.27801 30.1639 4.11232 29.5999 4.57788C29.0363 5.04303 28.2016 4.96351 27.7364 4.39907ZM23.6038 12.9235C23.2264 12.4661 23.0291 11.76 23.0291 11.76C22.9714 11.5544 23.0987 11.3999 23.3113 11.4176C23.3113 11.4176 25.0503 11.5597 25.9164 10.8457C26.782 10.1313 26.9723 8.39679 26.9723 8.39679C26.9954 8.1842 27.1709 8.08861 27.3617 8.1842C27.3617 8.1842 28.0176 8.51215 28.3954 8.96947C29.4872 10.2924 29.2993 12.2502 27.9764 13.3425C26.6534 14.4339 24.6952 14.2464 23.6038 12.9235ZM18.9552 9.9488L20.3218 10.1293C20.5451 10.1581 20.7173 10.3666 20.7037 10.5915L20.6209 11.9676C20.6073 12.1926 20.4125 12.3648 20.1875 12.3495C20.1875 12.3495 19.4504 12.3005 18.928 11.6681C18.406 11.0357 18.4983 10.3027 18.4983 10.3027C18.5263 10.079 18.7319 9.91955 18.9552 9.9488ZM21.3539 7.15417L22.1001 6.76895L22.2014 5.97131C22.5776 5.70104 23.0093 5.56343 23.4452 5.55313L24.0085 6.11057L24.7892 5.96225C24.947 6.0739 25.097 6.19997 25.2259 6.35612C25.3887 6.55347 25.5028 6.77348 25.5872 7.00049L25.2243 7.72191L25.628 8.45733C25.5024 8.85327 25.2688 9.22036 24.9243 9.50423C24.9231 9.50505 24.9219 9.50588 24.9206 9.5067L24.0674 9.3761L23.4757 10.0056C23.053 10.0007 22.6381 9.87668 22.276 9.63854L22.1363 8.78735L21.3572 8.42025C21.2336 8.00537 21.2349 7.56493 21.3539 7.15417ZM23.2874 2.77952C23.6652 3.23726 23.8626 3.94343 23.8626 3.94343C23.9199 4.14902 23.793 4.30311 23.5804 4.28539C23.5804 4.28539 21.8409 4.14284 20.9753 4.85725C20.1101 5.57166 19.9197 7.30619 19.9197 7.30619C19.8967 7.51879 19.7211 7.61396 19.53 7.51879C19.53 7.51879 18.8741 7.19083 18.4967 6.73351C17.4045 5.41016 17.5919 3.45232 18.9149 2.36093C20.2378 1.26912 22.1952 1.45659 23.2874 2.77952Z" fill="black"/>
</svg>
