<svg width="28" height="48" viewBox="0 0 28 48" fill="none" xmlns="http://www.w3.org/2000/svg">
<path d="M25.7709 21.5659C26.3471 21.5659 26.8158 21.0971 26.8158 20.5209C26.8158 19.9426 26.3471 19.4739 25.7709 19.4739H22.578C22.578 19.4739 22.6876 11.6798 14.7839 11.6798V7.88274C14.7839 7.199 14.2292 6.64428 13.5455 6.64428C12.8617 6.64428 12.307 7.199 12.307 7.88274V11.6798C4.40342 11.6798 4.51295 19.4739 4.51295 19.4739H1.32004C0.743793 19.4739 0.275104 19.9426 0.275104 20.5209C0.275104 21.0972 0.743826 21.5659 1.32004 21.5659H2.31124V45.0796C1.42968 45.0796 0.715886 45.7956 0.715886 46.6771V47.6124H26.3752V46.6771C26.3752 45.7955 25.6613 45.0796 24.7798 45.0796V21.5659H25.7709ZM22.4683 43.6259L17.3425 43.628V37.4616C17.3446 37.2186 17.25 36.9843 17.078 36.8123C16.906 36.6403 16.6738 36.5435 16.4287 36.5435H10.6618C10.4167 36.5435 10.1845 36.6403 10.0125 36.8123C9.8405 36.9843 9.74589 37.2186 9.74804 37.4616V43.6258L4.64371 43.628V21.4948H22.4467L22.4683 43.6259Z" fill="black"/>
<path d="M26.3753 47.8873H0.715996C0.56334 47.8873 0.440782 47.7647 0.440782 47.6121V46.6768C0.440782 45.748 1.11808 44.961 2.03614 44.8213V21.8409H1.32015C0.59127 21.8409 0 21.2496 0 20.5208C0 19.7898 0.59127 19.1985 1.32015 19.1985H4.24429C4.28729 18.3126 4.5754 15.5433 6.54491 13.5395C7.88872 12.1806 9.73783 11.4647 12.0492 11.4088V7.88263C12.0492 7.04626 12.7265 6.36896 13.5629 6.36896C14.3971 6.36896 15.0765 7.04626 15.0765 7.88263V11.411C17.3729 11.4669 19.2219 12.1807 20.5808 13.5417C22.5503 15.5456 22.8384 18.315 22.8814 19.2007H25.8034V19.1985C26.5323 19.1985 27.1257 19.7898 27.1257 20.5208C27.1257 21.2497 26.5323 21.841 25.8034 21.841H25.0874V44.8213C26.0055 44.9611 26.6849 45.748 26.6849 46.6769V47.6121C26.6849 47.6917 26.6505 47.7669 26.5925 47.8185C26.5344 47.8723 26.4548 47.8959 26.3753 47.8873ZM0.99121 47.3369H26.1001V46.6768C26.0979 45.9479 25.5088 45.3588 24.7799 45.3545C24.6273 45.3545 24.5047 45.232 24.5047 45.0793V21.5656C24.5047 21.4129 24.6273 21.2904 24.7799 21.2904H25.7711C26.1968 21.2904 26.5408 20.9464 26.5408 20.5207C26.5408 20.095 26.1968 19.7488 25.7711 19.7488H22.5782C22.5029 19.7509 22.432 19.7208 22.3804 19.6671C22.3266 19.6155 22.2987 19.5424 22.303 19.4693C22.303 19.437 22.303 16.1237 20.1507 13.9265C18.8628 12.6214 17.0567 11.957 14.784 11.957V11.9548C14.6314 11.9548 14.5088 11.8323 14.5088 11.6796V7.88256C14.5088 7.34934 14.0766 6.91932 13.5456 6.91932C13.0145 6.91932 12.5823 7.34934 12.5823 7.88256V11.6796C12.5823 11.7527 12.5544 11.8237 12.5028 11.8753C12.4512 11.9269 12.3802 11.9548 12.3071 11.9548C10.0345 11.9548 8.22834 12.6214 6.94045 13.9243C4.77099 16.126 4.78817 19.4286 4.78817 19.4671V19.4693C4.79247 19.5424 4.76452 19.6155 4.71077 19.6671C4.65916 19.7208 4.58821 19.7509 4.51295 19.7488H1.32004C0.894313 19.7488 0.550318 20.095 0.550318 20.5207C0.550318 20.9464 0.894335 21.2904 1.32004 21.2904H2.31124C2.38435 21.2904 2.4553 21.3205 2.5069 21.3721C2.55851 21.4237 2.58646 21.4925 2.58646 21.5656V45.0793C2.58646 45.1524 2.55851 45.2234 2.5069 45.275C2.4553 45.3266 2.38435 45.3545 2.31124 45.3545C1.58237 45.3588 0.993246 45.9479 0.991099 46.6768L0.99121 47.3369ZM22.4579 43.9031H17.3428C17.1922 43.9031 17.0675 43.7784 17.0675 43.6279V37.4615C17.0675 37.1089 16.7837 36.8207 16.4289 36.8186H10.6621C10.3073 36.8207 10.0235 37.1089 10.0235 37.4615V43.6279C10.0235 43.701 9.9934 43.7698 9.9418 43.8214C9.89019 43.873 9.82139 43.9031 9.74829 43.9031H4.64396C4.49345 43.9031 4.36874 43.7784 4.36874 43.6279V21.4947C4.36874 21.342 4.49345 21.2195 4.64396 21.2195H22.447C22.5179 21.2195 22.5889 21.2474 22.6405 21.299C22.6921 21.3506 22.7222 21.4216 22.7222 21.4947V43.6279C22.7222 43.701 22.6921 43.7698 22.6405 43.8214C22.5889 43.873 22.5179 43.9031 22.447 43.9031H22.4579ZM17.6309 43.3527H22.1827V21.7699H4.91961V43.3527H9.47352V37.4615C9.47352 36.8057 10.0046 36.2703 10.6625 36.2682H16.4294C17.0873 36.2703 17.6184 36.8057 17.6184 37.4615L17.6309 43.3527Z" fill="black"/>
<path d="M13.2421 25.1992C14.7299 26.0787 15.906 27.401 16.6113 28.9791C17.2434 30.4648 17.0693 32.1721 16.149 33.4986C15.8867 33.9373 15.4674 34.2576 14.9772 34.3952V32.2494C14.9772 31.957 14.8611 31.6775 14.6547 31.4711C14.4483 31.2647 14.1666 31.1486 13.8763 31.1486C13.2678 31.1486 12.7755 31.6409 12.7755 32.2494V34.2576C11.7133 34.1974 10.7823 33.5244 10.3932 32.5354C10.004 31.5442 10.2276 30.4196 10.963 29.6521C11.894 28.5792 13.227 26.8118 13.2421 25.1992Z" fill="black"/>
<path d="M14.9776 34.677C14.9109 34.677 14.8486 34.6534 14.8013 34.6104C14.7368 34.5588 14.7024 34.4835 14.7024 34.4018V32.256C14.7024 31.8002 14.3325 31.4304 13.8767 31.4304C13.4209 31.4304 13.0511 31.8002 13.0511 32.256V34.2642C13.0511 34.3395 13.021 34.4104 12.9672 34.462C12.9135 34.5115 12.8425 34.5394 12.7694 34.5394C11.5976 34.4792 10.5698 33.7439 10.1377 32.6538C9.70556 31.5637 9.94849 30.3209 10.7612 29.4759C11.5761 28.5514 12.9629 26.7732 12.9629 25.2037C12.9629 25.1069 13.0124 25.0166 13.0962 24.9672C13.1801 24.9177 13.2833 24.9156 13.3693 24.9629C14.9109 25.8702 16.1279 27.2398 16.8482 28.8761C17.5125 30.45 17.3276 32.2539 16.3579 33.6579C16.0655 34.1611 15.5839 34.5287 15.0206 34.6771L14.9776 34.677ZM13.8767 30.88C14.2401 30.88 14.5906 31.024 14.8485 31.282C15.1065 31.5401 15.2528 31.8905 15.2528 32.256V34.0127V34.0105C15.5172 33.8364 15.7473 33.6106 15.9236 33.344C16.788 32.0948 16.9514 30.4887 16.3579 29.0911C15.7409 27.7021 14.7432 26.5195 13.4789 25.6767C13.2639 27.1968 12.1308 28.7535 11.1676 29.8372V29.8393C10.5355 30.4887 10.3161 31.4347 10.5935 32.2969C10.873 33.1591 11.6062 33.7955 12.5006 33.9503V32.2496C12.5006 31.8841 12.6447 31.5357 12.9027 31.2756C13.1607 31.0176 13.5112 30.8735 13.8767 30.8735L13.8767 30.88Z" fill="black"/>
<path d="M13.5454 9.98543C11.5264 9.98543 9.70524 8.76849 8.93338 6.90216C8.15937 5.03802 8.58721 2.89004 10.0149 1.46239C11.4425 0.034751 13.5905 -0.393151 15.4568 0.380915C17.3209 1.15278 18.5379 2.97392 18.5379 4.99289C18.5357 7.74932 16.3018 9.98114 13.5454 9.98543ZM13.5454 1.65141C12.193 1.65141 10.976 2.46632 10.4578 3.71337C9.94176 4.96256 10.2277 6.39885 11.1824 7.35565C12.1392 8.31031 13.5755 8.59626 14.8247 8.08024C16.0717 7.56206 16.8866 6.34298 16.8866 4.99267C16.8866 3.14786 15.3901 1.65141 13.5454 1.65141Z" fill="black"/>
</svg>
